<svg xmlns="http://www.w3.org/2000/svg" width="151" height="123" viewBox="0 0 151 123">
<desc>Auto-generated vector approximation</desc>
<path d="M62.00,4.00 L41.00,11.00 L26.00,23.00 L14.00,45.00 L12.00,68.00 L21.00,93.00 L37.00,109.00 L59.00,118.00 L80.00,118.00 L99.00,111.00 L115.00,97.00 L125.00,78.00 L127.00,54.00 L120.00,33.00 L104.00,15.00 L86.00,6.00 Z" fill="#010101" stroke="none" />
<path d="M37.00,23.00 L27.00,35.00 L29.00,50.00 L37.00,65.00 L49.00,76.00 L60.00,81.00 L65.00,64.00 L49.00,49.00 Z" fill="#F5CD41" stroke="none" />
<path d="M118.00,63.00 L101.00,60.00 L100.00,83.00 L89.00,107.00 L100.00,101.00 L112.00,88.00 L119.00,70.00 Z" fill="#F5CD41" stroke="none" />
<path d="M90.00,59.00 L74.00,64.00 L71.00,81.00 L53.00,108.00 L69.00,111.00 L83.00,98.00 L92.00,76.00 Z" fill="#F5CD41" stroke="none" />
<path d="M21.00,54.00 L22.00,78.00 L29.00,91.00 L43.00,103.00 L56.00,90.00 L42.00,82.00 L29.00,69.00 Z" fill="#F5CD41" stroke="none" />
<path d="M57.00,43.00 L69.00,56.00 L96.00,49.00 L118.00,52.00 L114.00,38.00 L99.00,32.00 L76.00,33.00 Z" fill="#F5CD41" stroke="none" />
<path d="M47.00,17.00 L52.00,36.00 L74.00,24.00 L100.00,22.00 L78.00,12.00 L61.00,12.00 Z" fill="#F5CD41" stroke="none" />
<path d="M0.00,0.00 L0.00,122.00 L150.00,122.00 L150.00,0.00 Z" fill="#F5F5F5" stroke="none" />
</svg>