<?xml version="1.0" encoding="UTF-8"?><svg id="a" xmlns="http://www.w3.org/2000/svg" width="300" height="300" viewBox="0 0 300 300">
<style type="text/css">
	.st0{fill:none;stroke:#FFFFFF;stroke-width:6;stroke-miterlimit:10;}
	.st1{fill:#FFFFFF;}
	.st2{fill:none;stroke:#FFFFFF;stroke-width:6;stroke-miterlimit:10;}
</style>
<circle fill="#FFFFFF" cx="137" cy="129" r="21.5"/>
<path class="st0" d="M300,191c-30,0-30,18-60,18s-30-18-60-18s-30,18-60,18s-30-18-60-18s-30,18-60,18"/>
<path class="st1" d="M275.32,170.44c-15.61,0.8-37.25,1.9-52.6,3.28c-17.42,1.27-34.99,1.72-52.34-0.49
	c-11.81-1.98-10.62-18.82,1.3-19.18c10.94-0.39,21.79,0.38,32.63,1.47c15.22,1.49,30.36,3.85,45.36,6.93
	c8.61,1.78,17.2,3.86,25.73,6.75c0.35,0.08,0.6,0.45,0.47,0.81c-0.08,0.25-0.31,0.4-0.55,0.42l0,0L275.32,170.44z"/>
<path class="st1" d="M97.14,164.01c-20.85,0.02-46.9-8.88-55.09-30.46c-7.21-19.9,0.24-41.03,8.2-59.12
	c0.31-0.62,1.29-0.37,1.17,0.38c-1.08,19.49-5.82,46.44,11.94,59.18c10.05,6.85,23.06,8.15,35.1,9.31
	c5.71,0.56,9.88,5.64,9.32,11.35C107.25,160.12,102.54,164.18,97.14,164.01L97.14,164.01L97.14,164.01z"/>
<circle class="st2" cx="67" cy="81" r="15"/>
</svg>
